Coordinates
version=1
nRows=9
nColumns=24
inDegrees=yes

Units are S.I. units (second, meters, Newtons, ...)
Angles are in degrees.

endheader
time	pelvis_tilt	pelvis_list	pelvis_rotation	pelvis_tx	pelvis_ty	pelvis_tz	hip_flexion_r	hip_adduction_r	hip_rotation_r	knee_angle_r	ankle_angle_r	subtalar_angle_r	mtp_angle_r	hip_flexion_l	hip_adduction_l	hip_rotation_l	knee_angle_l	ankle_angle_l	subtalar_angle_l	mtp_angle_l	lumbar_extension	lumbar_bending	lumbar_rotation
      0.45000000	     -1.69919089	      1.08544125	      1.24696534	     -0.79803921	      1.04349387	      0.27770826	     27.30427482	     -0.75543298	     -2.47337606	      0.02824781	      4.08480587	     -7.64401557	      8.58229933	    -17.74189065	      2.15145919	      1.51305382	     -2.05303845	     16.62698217	      7.66521686	      5.79617755	    -15.23764786	      0.59954535	     -5.97170222
      0.45416667	     -1.70414350	      1.06780388	      1.34824954	     -0.79207044	      1.04265892	      0.27779641	     27.27720946	     -0.73541867	     -2.00818874	     -0.43136929	      4.06369220	     -7.88994663	      8.57579856	    -17.91801003	      2.07359337	      1.51677824	     -2.39160992	     16.69671718	      7.86174093	      5.84133921	    -15.23399400	      0.74867794	     -6.00035314
      0.45833333	     -1.69473420	      1.02280611	      1.45586311	     -0.78603718	      1.04189044	      0.27788262	     27.21159256	     -0.68413312	     -1.58632135	     -0.87433128	      3.91160061	     -8.24564509	      8.56836329	    -18.07404839	      1.95952478	      1.39840707	     -2.81027690	     16.80660154	      8.21419888	      5.94032683	    -15.23507654	      0.93976276	     -6.01602017
      0.46250000	     -1.69071815	      0.98359501	      1.56493185	     -0.77995579	      1.04115650	      0.27798742	     27.13882092	     -0.63570686	     -1.18937830	     -1.31785827	      3.76814612	     -8.52804226	      8.56851474	    -18.21590267	      1.84861704	      1.28627610	     -3.24665006	     16.88992160	      8.56526545	      6.06885715	    -15.22558377	      1.12097649	     -6.03268019
      0.46666667	     -1.67705566	      0.92710650	      1.68257533	     -0.77381640	      1.04048553	      0.27808946	     27.02990498	     -0.56998029	     -0.82100824	     -1.73364891	      3.59776725	     -8.80095233	      8.57401524	    -18.37112469	      1.71399007	      1.21650436	     -3.68090800	     16.96071093	      8.88120807	      6.19852176	    -15.21833380	      1.33687752	     -6.05341297
      0.47083333	     -1.67787781	      0.88330594	      1.79374072	     -0.76764731	      1.03984251	      0.27823545	     26.93222478	     -0.50855202	     -0.48372636	     -2.15028811	      3.32498844	     -9.12803138	      8.59079981	    -18.47216965	      1.58893851	      1.02803674	     -4.19206172	     16.99277432	      9.32828143	      6.43307985	    -15.19296912	      1.50922572	     -6.06937974
      0.47500000	     -1.65273152	      0.81014308	      1.91942083	     -0.76142303	      1.03930229	      0.27834904	     26.77903487	     -0.42254121	     -0.19898833	     -2.52641322	      3.01167485	     -9.44776161	      8.60945651	    -18.60897674	      1.42660299	      0.88500414	     -4.68422328	     16.99865600	      9.70858350	      6.66986785	    -15.19222684	      1.74202860	     -6.09484440
      0.47916667	     -1.65960548	      0.72842438	      2.04369190	     -0.75511842	      1.03876646	      0.27847559	     26.64672214	     -0.32552675	      0.05721050	     -2.88672963	      2.64502823	     -9.79663222	      8.63385746	    -18.69179615	      1.25367973	      0.71996217	     -5.22781808	     16.99813491	     10.11433528	      6.94220329	    -15.13639440	      1.98093161	     -6.11179772
      0.48333333	     -1.64090607	      0.64159725	      2.16658255	     -0.74881752	      1.03833532	      0.27862305	     26.48128833	     -0.22005812	      0.27253512	     -3.23368921	      2.21839402	    -10.15265668	      8.66401132	    -18.78053929	      1.07135107	      0.54188683	     -5.80318344	     16.97254935	     10.53394080	      7.26720256	    -15.11864255	      2.23025598	     -6.12537138
